HIERARCHY
ROOT Hips
{
	OFFSET 0.00000 0.00000 0.00000
	CHANNELS 6 Xposition Yposition Zposition Zrotation Yrotation Xrotation 
	JOINT LHipJoint
	{
		OFFSET 0 0 0
		CHANNELS 3 Zrotation Yrotation Xrotation
		JOINT LeftHip
		{
			OFFSET 1.81638 -1.86202 0.89635
			CHANNELS 3 Zrotation Yrotation Xrotation
			JOINT LeftKnee
			{
				OFFSET 2.63464 -7.23861 0.00000
				CHANNELS 3 Zrotation Yrotation Xrotation
				JOINT LeftAnkle
				{
					OFFSET 2.45871 -6.75336 0.00000
					CHANNELS 3 Zrotation Yrotation Xrotation
					JOINT LeftToe
					{
						OFFSET 0.34235 -0.94059 2.20020
						CHANNELS 3 Zrotation Yrotation Xrotation
						End Site
						{
							OFFSET 0.00000 -0.00000 1.18611
						}
					}
				}
			}
		}
	}
	JOINT RHipJoint
	{
		OFFSET 0 0 0
		CHANNELS 3 Zrotation Yrotation Xrotation
		JOINT RightHip
		{
			OFFSET -1.84405 -1.86203 0.89635
			CHANNELS 3 Zrotation Yrotation Xrotation
			JOINT RightKnee
			{
				OFFSET -2.71067 -7.44751 0.00000
				CHANNELS 3 Zrotation Yrotation Xrotation
				JOINT RightAnkle
				{
					OFFSET -2.47159 -6.79060 0.00000
					CHANNELS 3 Zrotation Yrotation Xrotation
					JOINT RightToe
					{
						OFFSET -0.26223 -0.72048 2.36007
						CHANNELS 3 Zrotation Yrotation Xrotation
						End Site
						{
							OFFSET -0.00000 -0.00000 1.23343
						}
					}
				}
			}
		}
	}
	JOINT lowerback
	{
		OFFSET 0 0 0
		CHANNELS 3 Zrotation Yrotation Xrotation
		JOINT Chest
		{
			OFFSET 0.02089 1.99248 -0.22512
			CHANNELS 3 Zrotation Yrotation Xrotation
			JOINT Chest2
			{
				OFFSET 0.01476 2.01356 -0.03079
				CHANNELS 3 Zrotation Yrotation Xrotation
				JOINT lowerneck
				{
					OFFSET 0 0 0
					CHANNELS 3 Zrotation Yrotation Xrotation
					JOINT Neck
					{
						OFFSET 0.04846 1.65098 0.06663
						CHANNELS 3 Zrotation Yrotation Xrotation
						JOINT Head
						{
							OFFSET -0.06061 1.60634 -0.07565
							CHANNELS 3 Zrotation Yrotation Xrotation
							End Site
							{
								OFFSET -0.02954 1.73562 -0.03642
							}
						}
					}
				}
				JOINT LeftCollar
				{
					OFFSET 0 0 0
					CHANNELS 3 Zrotation Yrotation Xrotation
					JOINT LeftShoulder
					{
						OFFSET 3.45234 1.47051 -0.06993
CHANNELS 3 Zrotation Xrotation Yrotation
						JOINT LeftElbow
						{
OFFSET 0 -5.493130 0.000000
CHANNELS 3 Zrotation Xrotation Yrotation
							JOINT LeftWrist
							{
OFFSET 0 -3.290370 0.000000
CHANNELS 3 Zrotation Xrotation Yrotation
								JOINT lhand
								{
									OFFSET 0 0 0
CHANNELS 3 Zrotation Xrotation Yrotation
									JOINT LFingers
									{
OFFSET 0 -0.729660 0.000000
CHANNELS 3 Zrotation Xrotation Yrotation
										End Site
										{
OFFSET 0 -0.588270 0.000000
										}
									}
								}
								JOINT LThumb
								{
OFFSET 0 0.000000 0.000000
CHANNELS 3 Zrotation Xrotation Yrotation
									End Site
									{
OFFSET 0 -0.597250 0.597250
									}
								}
							}
						}
					}
				}
				JOINT RightCollar
				{
					OFFSET 0 0 0
					CHANNELS 3 Zrotation Yrotation Xrotation
					JOINT RightShoulder
					{
						OFFSET -3.41935 1.44327 0.20453
CHANNELS 3 Zrotation Xrotation Yrotation
						JOINT RightElbow
						{
OFFSET 0 -5.236840 0.000000
CHANNELS 3 Zrotation Xrotation Yrotation
							JOINT RightWrist
							{
OFFSET 0 -3.382510 0.000000
CHANNELS 3 Zrotation Xrotation Yrotation
								JOINT rhand
								{
									OFFSET 0 0 0
CHANNELS 3 Zrotation Xrotation Yrotation
									JOINT RFingers
									{
OFFSET 0 -0.691450 0.000000
CHANNELS 3 Zrotation Xrotation Yrotation
										End Site
										{
OFFSET 0 -0.557470 0.000000
										}
									}
								}
								JOINT RThumb
								{
OFFSET 0 0.000000 0.000000
CHANNELS 3 Zrotation Xrotation Yrotation
									End Site
									{
OFFSET 0 -0.565980 0.565980
									}
								}
							}
						}
					}
				}
			}
		}
	}
}
MOTION
Frames: 11
Frame Time: 0.008333333333333333
-31.500200 17.775400 -3.457600 -122.011000 84.444600 -119.711000 0.000000 0.000000 0.000000 -7.915000 -10.417400 -11.783400 2.162900 9.197500 26.415000 0.593400 -8.616300 -14.108400 0.196700 2.855900 7.877900 0.000000 0.000000 0.000000 20.994100 4.764900 -5.375600 -0.994900 -6.347900 17.797300 0.069700 -14.109600 -19.237700 -0.201400 2.889600 -7.971600 1.443500 -1.499700 15.482300 3.468800 -1.262500 6.063400 3.034700 -0.488000 -2.201000 -0.663800 1.401700 -2.694500 -2.198600 1.888000 -6.887300 -0.585500 1.048100 -1.664300 0.000000 0.000000 0.000000 2.849500 14.239800 -22.356700 36.650000 -45.955000 15.987900 -3.972300 -2.258300 -8.705200 0.000000 0.000000 0.000000 -7.125000 0.000000 0.000000 -25.862100 37.398700 -5.274700 0.000000 0.000000 0.000000 -18.629600 6.442500 35.505100 -27.733000 -38.869200 -9.955700 -6.281400 5.350000 16.134600 0.000000 0.000000 0.000000 7.125000 0.000000 -0.000000 19.881800 45.224200 -0.114600
-31.507025 17.750613 -3.511699 -116.671047 84.449003 -114.465524 0.000000 0.000000 0.000000 -7.836160 -10.303055 -12.089924 2.313441 9.490364 27.341862 0.648768 -8.524699 -14.663207 0.026327 1.044668 2.871660 0.000000 0.000000 0.000000 21.063362 4.549662 -5.338495 -0.984732 -6.316282 17.704932 0.052564 -13.649259 -18.770041 -0.229007 3.080246 -8.502326 1.056428 -1.426787 15.729704 3.243921 -1.228714 6.084166 3.017229 -0.475488 -2.308356 -0.636817 1.523925 -2.749396 -1.558623 2.081343 -6.852154 -0.391494 1.131040 -1.647682 0.000000 0.000000 0.000000 3.314443 14.144877 -22.134547 35.419259 -45.108499 15.109840 -3.835814 -2.398269 -9.313876 0.000000 0.000000 0.000000 -7.125000 0.000000 0.000000 -25.955566 37.958723 -4.903499 0.000000 0.000000 0.000000 -18.112000 6.540066 35.074303 -28.017111 -39.131879 -10.134502 -6.169667 5.046915 16.575819 0.000000 0.000000 0.000000 7.125000 0.000000 0.000000 20.147490 45.626159 -0.324732
-31.517697 17.746913 -3.566661 -109.543815 84.385193 -107.257292 0.000000 0.000000 0.000000 -7.604216 -10.077805 -12.431082 2.414555 9.680684 27.948834 0.709337 -8.536913 -15.272382 0.021239 0.936069 2.572969 0.000000 0.000000 0.000000 21.149393 4.684598 -5.767071 -1.020319 -6.425955 18.025546 -0.039036 -12.685799 -18.528230 -0.185312 2.771505 -7.643278 0.772277 -1.343107 15.837225 3.075676 -1.172418 6.050962 2.994208 -0.452456 -2.400658 -0.308374 1.668517 -2.582643 -1.302744 2.281075 -7.016719 -0.371434 1.219659 -1.727355 0.000000 0.000000 0.000000 3.743666 13.954186 -21.866969 34.157157 -44.199869 14.222867 -3.896300 -2.330378 -9.560814 0.000000 0.000000 0.000000 -7.125000 0.000000 0.000000 -26.086066 38.176473 -4.779129 0.000000 0.000000 0.000000 -17.737978 6.593193 35.103625 -28.214416 -39.312855 -10.259252 -6.528186 5.118841 16.238191 0.000000 0.000000 0.000000 7.125000 0.000000 0.000000 19.702071 45.351202 -0.177877
-31.526298 17.736843 -3.619070 -102.555553 84.309981 -100.196463 0.000000 0.000000 0.000000 -7.436721 -9.779077 -12.749781 2.507642 9.851779 28.498118 0.762267 -8.549141 -15.789763 0.010310 0.654226 1.797914 0.000000 0.000000 0.000000 21.190362 4.785532 -6.283558 -1.083187 -6.614653 18.578671 -0.170244 -11.491660 -18.552670 -0.119733 2.225645 -6.129978 0.411398 -1.235664 15.921745 2.912802 -1.098393 6.005708 3.016842 -0.421629 -2.492574 -0.394201 1.750143 -2.524150 -0.812386 2.417172 -7.161206 -0.208108 1.282144 -1.790364 0.000000 0.000000 0.000000 4.181534 13.788933 -21.633739 32.982481 -43.315681 13.410316 -3.968980 -2.102867 -9.770338 0.000000 0.000000 0.000000 -7.125000 0.000000 0.000000 -26.214610 38.359210 -4.677250 0.000000 0.000000 0.000000 -17.392651 6.666455 35.240080 -28.443392 -39.521184 -10.404646 -6.738679 5.091280 15.973777 0.000000 0.000000 0.000000 7.125000 0.000000 0.000000 19.418057 45.126414 -0.063070
-31.533484 17.727488 -3.668020 -95.031444 84.220663 -92.575723 0.000000 0.000000 0.000000 -7.324248 -9.393974 -13.064661 2.591136 10.001745 28.982311 0.812617 -8.506339 -16.262100 0.005561 0.482013 1.324393 0.000000 0.000000 0.000000 21.185540 4.933566 -6.894826 -1.166233 -6.855195 19.287101 -0.335430 -10.034964 -18.783304 -0.051477 1.457848 -4.009668 0.036846 -1.102961 15.963254 2.750517 -0.996571 5.937595 3.042138 -0.377411 -2.587309 -0.619084 1.810822 -2.537269 -0.332728 2.528287 -7.270648 -0.023466 1.335628 -1.832835 0.000000 0.000000 0.000000 4.615421 13.632493 -21.378324 31.915722 -42.479472 12.684001 -3.998561 -1.627111 -9.911144 0.000000 0.000000 0.000000 -7.125000 0.000000 0.000000 -26.286166 38.483421 -4.603924 0.000000 0.000000 0.000000 -17.119728 6.762748 35.668248 -28.716348 -39.767349 -10.578789 -6.848482 4.919577 15.707201 0.000000 0.000000 0.000000 7.125000 0.000000 0.000000 19.224270 44.887047 0.055672
-31.538035 17.721968 -3.711710 -87.160234 84.083064 -84.613010 0.000000 0.000000 0.000000 -7.279495 -8.976782 -13.268387 2.648075 10.102306 29.308571 0.859878 -8.270205 -16.672475 0.001958 0.283240 0.778285 0.000000 0.000000 0.000000 21.152470 5.171199 -7.498711 -1.260574 -7.117202 20.063105 -0.517659 -8.408838 -19.171389 -0.015676 0.808397 -2.221913 -0.308554 -0.959349 15.963155 2.578316 -0.878151 5.866232 3.036415 -0.324417 -2.665655 -0.867587 1.872538 -2.615525 0.031418 2.636432 -7.348441 0.130311 1.390396 -1.853879 0.000000 0.000000 0.000000 5.016616 13.504338 -21.011084 31.005056 -41.739431 12.073203 -3.863553 -0.954852 -9.989234 0.000000 0.000000 0.000000 -7.125000 0.000000 0.000000 -26.205873 38.565048 -4.529353 0.000000 0.000000 0.000000 -16.915306 6.842521 36.391179 -28.970985 -39.994842 -10.742084 -6.854198 4.601128 15.454277 0.000000 0.000000 0.000000 7.125000 0.000000 0.000000 19.128721 44.648102 0.172714
-31.538882 17.721197 -3.747144 -79.516905 83.839682 -76.928004 0.000000 0.000000 0.000000 -7.252247 -8.615752 -13.269658 2.677361 10.153513 29.475287 0.909489 -7.820535 -17.083610 0.000152 0.075261 0.206884 0.000000 0.000000 0.000000 21.158265 5.514550 -7.900004 -1.336640 -7.320415 20.668150 -0.703710 -6.549574 -19.562051 -0.006431 0.519262 -1.426826 -0.580940 -0.823429 15.932585 2.405753 -0.758267 5.811809 2.987625 -0.269718 -2.711735 -1.024488 1.959932 -2.677932 0.201672 2.768073 -7.445849 0.208275 1.458476 -1.880634 0.000000 0.000000 0.000000 5.342890 13.440499 -20.417396 30.294595 -41.144385 11.603061 -3.562437 -0.220417 -9.913251 0.000000 0.000000 0.000000 -7.125000 0.000000 0.000000 -25.940680 38.521778 -4.505415 0.000000 0.000000 0.000000 -16.763933 6.860098 37.349004 -29.129046 -40.135008 -10.843787 -6.696255 4.194083 15.219093 0.000000 0.000000 0.000000 7.125000 0.000000 0.000000 19.184407 44.407330 0.291891
-31.535243 17.723363 -3.772542 -72.814923 83.471407 -70.263606 0.000000 0.000000 0.000000 -7.180220 -8.351476 -13.059772 2.690472 10.176294 29.549602 0.961643 -7.248503 -17.519286 0.000280 -0.106828 -0.293528 0.000000 0.000000 0.000000 21.273053 5.956886 -7.953365 -1.367908 -7.402156 20.912322 -0.872864 -4.496311 -19.835863 -0.006649 0.524945 -1.442478 -0.777499 -0.703860 15.890347 2.259782 -0.645164 5.783197 2.924671 -0.217196 -2.725192 -1.134121 2.065909 -2.709370 0.244094 2.916907 -7.566377 0.237923 1.536457 -1.917977 0.000000 0.000000 0.000000 5.567555 13.461868 -19.576831 29.805003 -40.725556 11.282258 -3.167869 0.390363 -9.817759 0.000000 0.000000 0.000000 -7.125000 0.000000 0.000000 -25.594248 38.468267 -4.471515 0.000000 0.000000 0.000000 -16.649063 6.805722 38.426916 -29.173048 -40.173942 -10.872185 -6.300411 3.772080 15.037944 0.000000 0.000000 0.000000 7.125000 0.000000 0.000000 19.467692 44.191395 0.404711
-31.526982 17.727412 -3.786856 -67.645611 83.025454 -65.202964 0.000000 0.000000 0.000000 -7.047302 -8.191927 -12.695770 2.695387 10.184778 29.577261 1.011772 -6.643202 -17.951264 0.001856 -0.275638 -0.757380 0.000000 0.000000 0.000000 21.515932 6.476677 -7.634286 -1.348753 -7.352188 20.763159 -0.992022 -2.644044 -19.945868 -0.009584 0.632567 -1.738300 -0.915485 -0.606747 15.827755 2.160268 -0.548581 5.773122 2.880102 -0.172359 -2.707412 -1.216371 2.171583 -2.706739 0.204462 3.059131 -7.677825 0.237107 1.611664 -1.956507 0.000000 0.000000 0.000000 5.689010 13.544962 -18.558207 29.500614 -40.461434 11.084111 -2.709744 0.740090 -9.837208 0.000000 0.000000 0.000000 -7.125000 0.000000 0.000000 -25.235303 38.523699 -4.360559 0.000000 0.000000 0.000000 -16.548791 6.682907 39.508369 -29.085271 -40.096302 -10.815590 -5.705152 3.462647 14.889205 0.000000 0.000000 0.000000 7.125000 0.000000 0.000000 19.935070 43.985035 0.521330
-31.515108 17.731467 -3.790127 -64.123166 82.587365 -61.830374 0.000000 0.000000 0.000000 -6.877383 -8.119008 -12.263387 2.695396 10.184864 29.577448 1.054922 -6.079526 -18.337536 0.004781 -0.444618 -1.221796 0.000000 0.000000 0.000000 21.855149 7.014459 -7.015291 -1.289581 -7.195505 20.295867 -1.051695 -1.470079 -19.958370 -0.012536 0.723885 -1.989288 -1.015302 -0.535965 15.733644 2.107460 -0.477837 5.764749 2.867238 -0.140084 -2.669696 -1.278398 2.256241 -2.692275 0.123092 3.168123 -7.724011 0.220513 1.669620 -1.974585 0.000000 0.000000 0.000000 5.742485 13.637897 -17.485743 29.309381 -40.294021 10.960253 -2.251868 0.816648 -9.954066 0.000000 0.000000 0.000000 -7.125000 0.000000 0.000000 -24.907783 38.667397 -4.198503 0.000000 0.000000 0.000000 -16.436567 6.518434 40.487692 -28.898463 -39.930244 -10.695480 -4.941395 3.284176 14.800645 0.000000 0.000000 0.000000 7.125000 0.000000 0.000000 20.567946 43.817961 0.628170
-31.500174 17.733842 -3.782751 -61.965742 82.237675 -59.830164 0.000000 0.000000 0.000000 -6.716891 -8.095607 -11.838325 2.690077 10.175539 29.547170 1.088013 -5.601272 -18.646511 0.008933 -0.610168 -1.676804 0.000000 0.000000 0.000000 22.219335 7.494210 -6.197882 -1.199601 -6.949214 19.564996 -1.054796 -1.156886 -19.856464 -0.013067 0.737635 -2.027058 -1.080585 -0.495264 15.602131 2.078499 -0.440781 5.734799 2.865814 -0.124632 -2.633113 -1.353050 2.304540 -2.695957 0.058797 3.227054 -7.652922 0.212938 1.700902 -1.951489 0.000000 0.000000 0.000000 5.790102 13.700806 -16.485043 29.154309 -40.157356 10.860078 -1.854109 0.720248 -10.134100 0.000000 0.000000 0.000000 -7.125000 0.000000 0.000000 -24.647885 38.863987 -4.017979 0.000000 0.000000 0.000000 -16.288020 6.382208 41.288199 -28.702291 -39.754762 -10.569823 -4.020071 3.214571 14.806990 0.000000 0.000000 0.000000 7.125000 0.000000 0.000000 21.368297 43.723225 0.707639
